<svg xmlns="http://www.w3.org/2000/svg" viewBox="0 0 256 256">
  <rect x="0" y="0" width="256" height="256" rx="58" fill="#ffffff"/>
  <svg x="38" y="38" width="180" height="180" viewBox="0 0 330 330" fill="#e657a0">
<path d="M0 0 C0.53 0.34 0.53 0.34 3.2 2.05 C11.17 7.36 18.13 13.36 25 20 C25.8 20.75 26.61 21.5 27.43 22.28 C53.86 47.61 68.44 82.79 68.25 119.06 C68.26 120.56 68.27 122.05 68.27 123.59 C68.27 124.3 68.27 124.3 68.27 127.91 C68.26 129.2 68.26 130.49 68.26 131.82 C68 135 68 135 66 138 C65.73 139.26 65.46 140.52 65.19 141.81 C60.11 163.99 47.96 187.54 31 203 C30.34 203 29.68 203 29 203 C28.34 204.32 27.68 205.64 27 207 C15.73 218.1 -3.83 231.53 -20 233 C-22.81 230.58 -24.04 227.93 -25.81 224.69 C-28.43 220.27 -31.41 216.66 -35 213 C-35.66 213.66 -36.32 214.32 -37 215 C-44.29 213.54 -51.11 210.81 -58.09 208.3 C-63.63 206.83 -65.75 207.45 -70.44 210.69 C-77.27 216.85 -84.05 225.15 -87 234 C-87.99 234 -88.98 234 -90 234 C-91.51 231.39 -91.51 231.39 -93.12 227.81 C-96.73 220.29 -101.06 213.7 -106 207 C-107.09 205.51 -108.19 204.03 -109.31 202.5 C-130.86 176.2 -161.59 147.88 -196 141 C-201.29 151.58 -196.44 167.83 -192 178 C-191.54 179.06 -191.08 180.11 -190.61 181.2 C-186.11 190.82 -177.8 206.1 -168 211 C-168 211.66 -168 212.32 -168 213 C-166.68 213.66 -165.36 214.32 -164 215 C-162.58 216.18 -161.15 217.35 -159.69 218.56 C-140.54 234.04 -117.3 243.47 -93.13 247.32 C-90.15 247.81 -87.18 248.4 -84.22 249.06 C-78.55 250.08 -73.06 250.38 -67.31 250.38 C-66.24 250.37 -65.16 250.37 -64.05 250.37 C-50.06 250.18 -36.52 247.51 -23 244 C-22 243.75 -21 243.5 -19.97 243.25 C-8.84 240.15 0.97 234.54 10.88 228.72 C14 227 14 227 16 227 C16.33 226.01 16.66 225.02 17 224 C19.63 221.95 22.3 219.96 25 218 C30 214.12 33.95 209.86 38 205 C38.78 204.07 39.55 203.15 40.35 202.19 C47.18 193.73 52.25 184.77 57 175 C57.49 174.01 57.99 173.01 58.5 171.99 C62.24 163.8 63.98 155.14 65.89 146.37 C67 142 67 142 69 140 C70.18 145.89 69.18 150.5 67.94 156.25 C67.71 157.32 67.48 158.4 67.24 159.5 C63.06 178.31 55.59 195.87 45 212 C44.34 212 43.68 212 43 212 C42.34 213.65 41.68 215.3 41 217 C39.29 219.22 37.52 221.38 35.69 223.5 C34.74 224.6 33.8 225.71 32.82 226.84 C30.3 229.67 27.7 232.35 25 235 C23.85 236.22 22.69 237.43 21.5 238.69 C6.16 253.83 -13.56 264.45 -34 271 C-34.59 271.19 -34.59 271.19 -37.57 272.17 C-80.99 285.56 -129.42 274.69 -165.14 247.62 C-167.82 245.47 -170.42 243.26 -173 241 C-173.95 240.18 -174.91 239.36 -175.89 238.51 C-183 232.29 -183 232.29 -183 230 C-183.99 229.67 -184.98 229.34 -186 229 C-192.81 221.3 -198.84 212.89 -204 204 C-204.72 202.77 -205.44 201.54 -206.18 200.28 C-212.33 189.28 -216.53 178.1 -220 166 C-220.22 165.27 -220.22 165.27 -221.32 161.55 C-233.01 114.57 -218.54 65.46 -188 29 C-187.42 28.31 -187.42 28.31 -184.5 24.81 C-180.87 20.86 -177.11 17.44 -173 14 C-172.61 13.66 -172.61 13.66 -170.61 11.91 C-123.33 -28.43 -52.41 -33.85 0 0 Z M-159 33 C-159.82 33.78 -160.65 34.57 -161.5 35.38 C-174.42 48.94 -178.88 64.19 -181.06 82.55 C-182 87 -182 87 -186 91 C-189.25 91.75 -189.25 91.75 -192 92 C-189.31 96.04 -187.74 95.84 -183 96 C-175.46 93.8 -171.33 86.74 -168.06 80 C-163.27 70.71 -156.97 65.32 -147 62 C-146.09 62.02 -146.09 62.02 -141.5 62.12 C-136 62 -136 62 -133 59 C-133 60.98 -133 62.96 -133 65 C-132.34 65.99 -131.68 66.98 -131 68 C-129.49 77.81 -129.81 87.74 -129.81 97.64 C-129.81 100.92 -129.79 104.21 -129.78 107.5 C-129.77 109.61 -129.77 111.73 -129.77 113.84 C-129.77 115.74 -129.76 117.64 -129.76 119.6 C-130.47 135.37 -130.47 135.37 -137 140 C-137.89 140.33 -137.89 140.33 -142.38 142 C-143.14 142.33 -143.14 142.33 -147 144 C-145.47 151.66 -140.49 154.11 -134 158 C-131.58 158.6 -129.14 159.12 -126.69 159.56 C-124.44 159.97 -122.21 160.43 -120 161 C-120 161.66 -120 162.32 -120 163 C-121.32 163.33 -122.64 163.66 -124 164 C-121.3 169.41 -118.66 169.45 -113 171 C-112.01 171 -111.02 171 -110 171 C-110 171.99 -110 172.98 -110 174 C-110.66 174 -111.32 174 -112 174 C-112 174.66 -112 175.32 -112 176 C-109.3 177.04 -109.3 177.04 -105.75 178.06 C-104.59 178.4 -103.43 178.75 -102.23 179.1 C-99.83 179.77 -97.42 180.4 -95 181 C-95 181.66 -95 182.32 -95 183 C-95.66 183.33 -95.66 183.33 -99 185 C-93.37 187.44 -88.06 187.15 -82 187 C-82.33 188.32 -82.66 189.64 -83 191 C-79.81 191.63 -79.81 191.63 -76 192 C-75.34 192.33 -75.34 192.33 -72 194 C-68.5 194.12 -68.5 194.12 -65 194 C-63.68 194 -62.36 194 -61 194 C-58 191 -58 191 -57.19 186.38 C-57.32 185.65 -57.32 185.65 -58 182 C-62.31 181.19 -62.31 181.19 -68 181 C-75.51 178.75 -80.98 176 -87 171 C-88.01 170.28 -89.02 169.56 -90.06 168.81 C-95.91 163.21 -104 152.3 -104 144 C-98.28 142.09 -91.94 142.64 -85.95 142.48 C-72.45 141.18 -61.96 131.38 -52.16 122.77 C-50.23 121.08 -48.26 119.42 -46.24 117.83 C-44 116 -44 116 -41.56 112.94 C-26.12 95.87 -4.18 82.22 19.01 80.98 C22 80 22 80 23.24 76.68 C23 73 23 73 21.19 70.73 C16.93 68.42 12.71 67.45 8 66.31 C-0.2 64.07 -6.19 61.53 -12.89 56.37 C-18.58 52.04 -24.85 48.62 -31 45 C-31.78 44.52 -31.78 44.52 -35.75 42.06 C-43.63 37.34 -51.85 33.22 -60 29 C-60.69 28.64 -60.69 28.64 -64.15 26.82 C-96.33 10.27 -131.7 3.52 -159 33 Z M1 97 C0.75 98.46 0.5 99.93 0.25 101.44 C-1.68 110.05 -5.44 115.5 -13 120 C-13 120.66 -13 121.32 -13 122 C-14.65 122.66 -16.3 123.32 -18 124 C-18.99 124.66 -19.98 125.32 -21 126 C-22.02 126.05 -23.04 126.1 -24.09 126.16 C-25.05 126.43 -26.01 126.71 -27 127 C-28.07 130.28 -28.07 130.28 -28.56 134.5 C-29.58 141.38 -31.46 145.97 -35 152 C-36.08 159.27 -34.21 167.79 -29 173 C-28.5 173.33 -28.5 173.33 -26 175 C-35.62 174.12 -35.62 174.12 -39 173 C-38.66 178.8 -37.44 181.25 -33 185 C-39.2 184.56 -43.57 183.01 -49 180 C-48.34 181.32 -47.68 182.64 -47 184 C-49 183 -51 182 -53 181 C-53.19 182.1 -53.39 183.19 -53.59 184.32 C-53.72 185.04 -53.72 185.04 -54.38 188.69 C-54.63 190.11 -54.89 191.54 -55.15 193.01 C-56 197 -56 197 -58 202 C-54.25 203.69 -54.25 203.69 -49 205 C-48.11 205.26 -48.11 205.26 -43.62 206.56 C-42.1 206.71 -40.57 206.85 -39 207 C-37.12 204.31 -37.12 204.31 -36 201 C-30.54 196.9 -25.5 197.55 -18.94 197.5 C-2.76 197.38 10.57 195.11 20.44 181.12 C20.95 179.76 21.47 178.4 22 177 C21.34 176.67 21.34 176.67 18 175 C14 173 14 173 13 168 C13.66 167.67 14.32 167.34 15 167 C15.66 168.32 16.32 169.64 17 171 C18 172 18 172 23 172 C24.57 164.14 24.57 164.14 23 161 C24.32 160.67 25.64 160.34 27 160 C28.25 157 28.25 157 28 154 C26.74 153.86 25.48 153.71 24.19 153.56 C22.81 153.38 21.42 153.19 20 153 C17.72 147.64 17.85 142.63 18 136.88 C18.13 119.94 16.29 108.76 3 97 C2.34 97 1.68 97 1 97 Z M-68 149 C-67.67 150.65 -67.34 152.3 -67 154 C-65.35 154.33 -63.7 154.66 -62 155 C-61.67 153.68 -61.34 152.36 -61 151 C-64.44 149.75 -64.44 149.75 -68 149 Z M-95 150 C-90.06 162.34 -81.78 171.44 -68.95 175.32 C-64.57 176.33 -60.13 177.07 -56 175 C-56.58 172.31 -57.24 169.64 -58 167 C-58.66 167.33 -58.66 167.33 -62 169 C-63.65 168.34 -65.3 167.68 -67 167 C-66.65 166.07 -66.3 165.14 -65.94 164.19 C-65.63 163.14 -65.32 162.08 -65 161 C-72.14 153.13 -84.62 150 -95 150 Z M-40 171 C-39 173 -39 173 -39 173 Z " transform="translate(238,35)"/>
<path d="M0 0 C4 2 4 2 7.12 6.25 C11 10 11 10 16.12 9.5 C17.73 9 19.34 8.51 21 8 C22.65 8 24.3 8 26 8 C26.16 8.33 26.16 8.33 27 10 C25.06 13.37 23.06 16.7 21 20 C20.67 20.66 20.34 21.32 20 22 C20.48 22.8 20.48 22.8 22.94 26.88 C26 32 26 32 26 36 C22.02 35.75 18.32 34.84 14.44 33.94 C10 34 10 34 6.62 37.81 C6.19 38.5 6.19 38.5 4 42 C1 44 1 44 -2 44 C-2.14 39.84 -1.86 35.75 -1.62 31.6 C-1.74 30.41 -1.87 29.22 -2 28 C-3.65 27.67 -5.3 27.34 -7 27 C-10.88 25.69 -10.88 25.69 -14 24 C-13 20 -13 20 -8 17.81 C-6.35 17.21 -4.7 16.62 -3 16 C-0.59 13.59 -2.06 9.12 -2.16 5.88 C-2 3 -2 3 0 0 Z " transform="translate(146,89)"/>
<path d="M0 0 C0 1.32 0 2.64 0 4 C-2.95 6.07 -5.96 8.07 -9 10 C-9.33 10.5 -9.33 10.5 -11 13 C-11.66 13 -12.32 13 -13 13 C-12.89 7.21 -11.41 4.66 -7 1 C-5 0 -5 0 0 0 Z " transform="translate(240,151)"/>
<path d="M0 0 C1.32 0.66 2.64 1.32 4 2 C4.66 2 5.32 2 6 2 C6.5 5.94 6.5 5.94 6 10 C3 11 3 11 0 11 C0.64 11.62 1.28 12.24 1.94 12.88 C5.56 18.36 5.49 23.85 4.06 30.12 C2 33 2 33 -1.81 33.69 C-6.3 32.95 -8.57 31.93 -12 29 C-14.19 22.44 -13.89 15.76 -10 10 C-5.79 5.26 -5.79 5.26 -2 4 C-1.34 2.68 -0.68 1.36 0 0 Z " transform="translate(240,162)"/>
  </svg>
</svg>
